<?xml version="1.0" ?>
<svg viewBox="0 0 30 30"
    xmlns="http://www.w3.org/2000/svg">
    <title/>
    <g data-name="Layer 2" id="Layer_2">
        <g id="Interface-Solid">
            <g id="interface-solid-multimedia-stop-button-1">
                <path d="M15,2.5A12.5,12.5,0,1,0,27.5,15,12.51408,12.51408,0,0,0,15,2.5ZM21,18a3.00328,3.00328,0,0,1-3,3H12a3.00328,3.00328,0,0,1-3-3V12a3.00328,3.00328,0,0,1,3-3h6a3.00328,3.00328,0,0,1,3,3Z" fill="none"/>
                <path d="M15,0A15,15,0,1,0,30,15,15.01641,15.01641,0,0,0,15,0Zm0,27.5A12.5,12.5,0,1,1,27.5,15,12.51408,12.51408,0,0,1,15,27.5Z" fill="#C2C2C2"/>
                <rect height="12" rx="3" width="12" x="9" y="9" fill="#C2C2C2" />
            </g>
        </g>
    </g>
</svg>