<?xml version="1.0" encoding="utf-8"?>
<!-- Svg Vector Icons : http://www.onlinewebfonts.com/icon -->
<!DOCTYPE svg PUBLIC "-//W3C//DTD SVG 1.1//EN" "http://www.w3.org/Graphics/SVG/1.1/DTD/svg11.dtd">
<svg version="1.1" xmlns="http://www.w3.org/2000/svg" xmlns:xlink="http://www.w3.org/1999/xlink" x="0px" y="0px" viewBox="0 0 1000 1000" enable-background="new 0 0 1000 1000" xml:space="preserve" fill="#C5C5C5">
<metadata> Svg Vector Icons : http://www.onlinewebfonts.com/icon </metadata>
<g><path d="M710,430H570V290c0-38.7-31.3-70-70-70s-70,31.3-70,70v140H290c-38.7,0-70,31.3-70,70s31.3,70,70,70h140v140c0,38.7,31.3,70,70,70s70-31.3,70-70V570h140c38.7,0,70-31.3,70-70S748.7,430,710,430z"/><path d="M500,10C229.4,10,10,229.4,10,500c0,270.6,219.4,490,490,490c270.6,0,490-219.4,490-490C990,229.4,770.6,10,500,10z M500,920C268,920,80,732,80,500C80,268,268,80,500,80c232,0,420,188,420,420C920,732,732,920,500,920z"/></g>
</svg>