<?xml version="1.0" encoding="utf-8"?>
<!-- Generator: Adobe Illustrator 16.0.0, SVG Export Plug-In . SVG Version: 6.00 Build 0)  -->
<!DOCTYPE svg PUBLIC "-//W3C//DTD SVG 1.1//EN" "http://www.w3.org/Graphics/SVG/1.1/DTD/svg11.dtd">
<svg version="1.1" id="Layer_1" xmlns="http://www.w3.org/2000/svg" xmlns:xlink="http://www.w3.org/1999/xlink" x="0px" y="0px"
	 width="1035px" height="325px" viewBox="0 0 1035 325" enable-background="new 0 0 1035 325" xml:space="preserve">
<g>
	<path fill="#606163" d="M187.325,157.728c0,37.561-30.445,68.02-68.006,68.02c-37.568,0-68.016-30.459-68.016-68.02
		c0-37.563,30.448-68.023,68.016-68.023C156.88,89.705,187.325,120.164,187.325,157.728 M245.98,257.962
		c0,0,4.485-5.171-0.674-9.675l-28.351-24.636c12.749-18.805,20.176-41.499,20.176-65.924c0-65.069-52.74-117.831-117.813-117.831
		c-65.07,0-117.82,52.761-117.82,117.831s52.75,117.828,117.82,117.828c23.818,0,45.938-7.136,64.463-19.288l31.084,27.023
		c0,0,5.186,4.502,9.691-0.681L245.98,257.962z M325.384,267.401V48.03c0-8.037-8.019-8.037-8.019-8.037h-35.321
		c-8.026,0-8.026,8.037-8.026,8.037v219.372c0,8.028,8.026,8.028,8.026,8.028h35.321
		C325.384,275.43,325.384,267.401,325.384,267.401 M412.111,70.296v-22.67c0,0,0-7.729-7.731-7.729h-33.94c0,0-7.705,0-7.705,7.729
		v22.67c0,0,0,7.718,7.705,7.718h33.94C404.38,78.014,412.111,78.014,412.111,70.296 M413.421,267.401V109.043
		c0-8.012-8.021-8.012-8.021-8.012h-34.652c-8.012,0-8.012,8.012-8.012,8.012v158.358c0,8.028,8.012,8.028,8.012,8.028h34.652
		C413.421,275.43,413.421,267.401,413.421,267.401 M561.968,170.26c-4.165-6.864,1.422-12.64,1.422-12.64l48.847-50.496
		c5.575-5.764-2.431-5.764-2.431-5.764h-45.633c-8.028,0-13.543,5.834-13.543,5.834l-45.333,48.019c-5.5,5.834-5.5-2.178-5.5-2.178
		V48.03c0-8.037-8.039-8.037-8.039-8.037h-34.602c-7.721,0-7.721,7.729-7.721,7.729v219.68c0,8.028,8.012,8.028,8.012,8.028h34.3
		c7.706,0,7.706-7.723,7.706-7.723v-38.603c0-8.016,5.846-13.516,5.846-13.516l16.156-15.188l40.583,68.14
		c4.103,6.89,12.142,6.89,12.142,6.89h43.288c8.028,0,3.878-6.866,3.878-6.866L561.968,170.26z"/>
	<path fill="#61A730" d="M930.301,156.15c0,52.123-42.245,94.39-94.365,94.39c-52.135,0-94.388-42.267-94.388-94.401
		c0-52.111,42.253-94.377,94.388-94.377C888.056,61.761,930.301,104.027,930.301,156.15 M1008.816,274.134l-42.994-36.069
		c14.99-23.708,23.715-51.787,23.715-81.914c0-84.835-68.767-153.602-153.602-153.602c-84.834,0-153.612,68.767-153.612,153.59
		c0,84.824,68.778,153.614,153.612,153.614c32.901,0,63.371-10.374,88.39-28.007l45.828,38.454c0,0,6.816,5.723,12.52-1.08
		l27.234-32.45C1009.907,286.67,1015.619,279.851,1008.816,274.134"/>
	<path fill="#606163" d="M775.434,156.139c0-33.413,27.066-60.491,60.491-60.491c33.413,0,60.49,27.078,60.49,60.514
		c0,33.415-27.077,60.493-60.49,60.481C802.5,216.643,775.434,189.576,775.434,156.139"/>
	<path fill="#606163" d="M1015.384,51.017h4.076c2.351,0,4.009-0.519,4.009-3.259c0-2.337-1.777-3.237-4.009-3.237h-4.076V51.017z
		 M1015.384,60.742h-1.971V42.789h6.526c3.08,0,5.499,1.578,5.499,4.969c0,2.833-1.544,4.72-4.256,5.002l5.052,7.981h-2.455
		l-4.768-7.981h-3.628V60.742z M1018.776,39.043c-6.947,0-12.353,5.679-12.353,12.768c0,7.128,5.298,12.749,12.353,12.749
		s12.353-5.621,12.353-12.749C1031.129,44.722,1025.831,39.043,1018.776,39.043 M1004.063,51.811
		c0-8.144,6.651-14.723,14.714-14.723c8.156,0,14.725,6.651,14.725,14.723c0,8.063-6.568,14.714-14.725,14.714
		C1010.714,66.525,1004.063,59.874,1004.063,51.811"/>
</g>
</svg>
